<svg xmlns="http://www.w3.org/2000/svg" viewBox="0 0 1200 760" role="img" aria-labelledby="title desc">
  <title id="title">Posterlytics product visual</title>
  <desc id="desc">A promotional poster generator with tracked QR codes and placement analytics.</desc>
  <defs>
    <linearGradient id="poster" x1="0" x2="1" y1="0" y2="1">
      <stop offset="0" stop-color="#f9f1e5"/>
      <stop offset="1" stop-color="#efe4d5"/>
    </linearGradient>
    <linearGradient id="blue" x1="0" x2="1" y1="0" y2="1">
      <stop offset="0" stop-color="#5968ff"/>
      <stop offset="1" stop-color="#2736c9"/>
    </linearGradient>
  </defs>
  <rect width="1200" height="760" fill="#f3ebdf"/>
  <rect x="48" y="48" width="1104" height="664" rx="36" fill="url(#poster)" stroke="#201f1b" stroke-width="4"/>
  <g transform="translate(96 92)">
    <rect x="0" y="0" width="44" height="44" rx="12" fill="url(#blue)" stroke="#111" stroke-width="3"/>
    <text x="22" y="31" fill="#fff" font-family="Georgia, serif" font-size="27" font-weight="700" text-anchor="middle">P</text>
    <text x="62" y="30" fill="#161511" font-family="Arial, sans-serif" font-size="28" font-weight="700">Posterlytics</text>
  </g>
  <g transform="translate(126 176)">
    <rect x="0" y="0" width="430" height="512" rx="28" fill="#ffffff" stroke="#191817" stroke-width="4"/>
    <rect x="34" y="36" width="190" height="34" rx="17" fill="#ede3d4" stroke="#191817" stroke-width="3"/>
    <text x="128" y="59" fill="#171612" font-family="Arial, sans-serif" font-size="16" font-weight="700" text-anchor="middle">product launch</text>
    <text x="36" y="138" fill="#171612" font-family="Arial, sans-serif" font-size="54" font-weight="800">On-brand</text>
    <text x="36" y="200" fill="#171612" font-family="Arial, sans-serif" font-size="54" font-weight="800">posters</text>
    <text x="36" y="262" fill="#4350e6" font-family="Arial, sans-serif" font-size="54" font-weight="800">that convert.</text>
    <rect x="36" y="308" width="212" height="16" rx="8" fill="#d5ccbf"/>
    <rect x="36" y="338" width="286" height="16" rx="8" fill="#d5ccbf"/>
    <rect x="36" y="368" width="244" height="16" rx="8" fill="#d5ccbf"/>
    <g transform="translate(276 308)">
      <rect x="0" y="0" width="110" height="110" rx="12" fill="#171612"/>
      <rect x="14" y="14" width="24" height="24" fill="#f7efe3"/>
      <rect x="72" y="14" width="24" height="24" fill="#f7efe3"/>
      <rect x="14" y="72" width="24" height="24" fill="#f7efe3"/>
      <rect x="48" y="48" width="14" height="14" fill="#f7efe3"/>
      <rect x="70" y="58" width="12" height="12" fill="#f7efe3"/>
      <rect x="44" y="80" width="14" height="14" fill="#f7efe3"/>
    </g>
    <rect x="36" y="452" width="160" height="34" rx="17" fill="#4350e6"/>
    <text x="116" y="475" fill="#fff" font-family="Arial, sans-serif" font-size="17" font-weight="700" text-anchor="middle">scan to launch</text>
  </g>
  <g transform="translate(620 172)">
    <text x="0" y="42" fill="#171612" font-family="Arial, sans-serif" font-size="62" font-weight="800">Paste URL.</text>
    <text x="0" y="112" fill="#171612" font-family="Arial, sans-serif" font-size="62" font-weight="800">Get poster.</text>
    <text x="0" y="182" fill="#4350e6" font-family="Arial, sans-serif" font-size="62" font-weight="800">Know what worked.</text>
    <rect x="4" y="236" width="436" height="86" rx="24" fill="#fff" stroke="#191817" stroke-width="4"/>
    <text x="34" y="288" fill="#171612" font-family="Arial, sans-serif" font-size="24" font-weight="700">https://your-product.com</text>
    <circle cx="392" cy="279" r="31" fill="url(#blue)" stroke="#191817" stroke-width="3"/>
    <path d="M383 279h18m0 0-8-8m8 8-8 8" fill="none" stroke="#fff" stroke-linecap="round" stroke-linejoin="round" stroke-width="5"/>
    <g transform="translate(4 366)">
      <rect x="0" y="0" width="492" height="172" rx="26" fill="#171612"/>
      <text x="30" y="44" fill="#f3ebdf" font-family="Arial, sans-serif" font-size="22" font-weight="700">Placement analytics</text>
      <g transform="translate(32 78)">
        <text x="0" y="0" fill="#f3ebdf" font-family="Arial, sans-serif" font-size="15" font-weight="700">Instagram</text>
        <rect x="120" y="-16" width="272" height="18" rx="9" fill="#4350e6"/>
        <text x="414" y="0" fill="#f3ebdf" font-family="Arial, sans-serif" font-size="15" font-weight="700">48%</text>
      </g>
      <g transform="translate(32 114)">
        <text x="0" y="0" fill="#f3ebdf" font-family="Arial, sans-serif" font-size="15" font-weight="700">LinkedIn</text>
        <rect x="120" y="-16" width="208" height="18" rx="9" fill="#7d86ff"/>
        <text x="414" y="0" fill="#f3ebdf" font-family="Arial, sans-serif" font-size="15" font-weight="700">37%</text>
      </g>
      <g transform="translate(32 150)">
        <text x="0" y="0" fill="#f3ebdf" font-family="Arial, sans-serif" font-size="15" font-weight="700">Print</text>
        <rect x="120" y="-16" width="126" height="18" rx="9" fill="#b5bbff"/>
        <text x="414" y="0" fill="#f3ebdf" font-family="Arial, sans-serif" font-size="15" font-weight="700">15%</text>
      </g>
    </g>
  </g>
</svg>
